<svg width="6915" height="1737" viewBox="0 0 6915 1737" fill="none" xmlns="http://www.w3.org/2000/svg">
<g clip-path="url(#clip0_4_2)">
<path d="M1821.55 1467.32C1821.55 1477.57 1824.11 1480.13 1833.08 1480.13H2004.78C2015.03 1480.13 2017.59 1477.57 2017.59 1467.32V1080.36H2205.95L2400.71 1468.6C2404.56 1477.57 2408.4 1480.13 2416.09 1480.13H2604.44C2613.41 1480.13 2618.54 1473.73 2613.41 1466.04L2399.43 1059.86C2528.84 1026.54 2624.94 924.037 2624.94 771.559C2624.94 581.923 2494.25 457.634 2308.46 457.634H1939.43C1861.27 457.634 1821.55 498.637 1821.55 575.517V1467.32ZM2017.59 927.882V613.957H2284.11C2381.49 613.957 2437.87 681.867 2437.87 771.559C2437.87 862.533 2381.49 927.882 2278.99 927.882H2017.59ZM2915.57 1354.56C2837.41 1354.56 2804.09 1317.4 2804.09 1263.59C2804.09 1198.24 2847.66 1154.68 2938.63 1154.68C3047.54 1154.68 3118.02 1212.34 3118.02 1284.09V1354.56H2915.57ZM3182.08 1480.13C3244.87 1480.13 3285.87 1442.97 3285.87 1380.19V991.947C3285.87 830.5 3171.83 739.526 2971.95 739.526C2695.18 739.526 2647.77 926.6 2647.77 972.727C2647.77 981.697 2650.33 985.541 2659.3 985.541H2802.81C2811.78 985.541 2816.91 981.697 2818.19 972.727C2829.72 908.662 2877.13 870.222 2962.98 870.222C3071.89 870.222 3116.74 922.756 3116.74 1002.2V1104.7C3116.74 1104.7 3071.89 1036.79 2909.16 1036.79C2741.31 1036.79 2634.96 1127.77 2634.96 1266.15C2634.96 1414.79 2743.87 1480.13 2895.07 1480.13H3182.08ZM3535.49 904.817H3685.41C3803.29 904.817 3871.2 988.104 3871.2 1120.08C3871.2 1249.49 3812.26 1336.62 3704.63 1336.62C3599.56 1336.62 3535.49 1266.15 3535.49 1130.33V904.817ZM3363.79 1723.59C3363.79 1733.84 3366.36 1736.4 3375.33 1736.4H3525.24C3534.21 1736.4 3538.05 1733.84 3538.05 1723.59V1404.54C3538.05 1404.54 3589.31 1489.1 3732.82 1489.1C3912.2 1489.1 4045.46 1336.62 4045.46 1114.95C4045.46 893.285 3898.11 751.058 3691.81 751.058H3467.58C3404.8 751.058 3363.79 788.217 3363.79 851.002V1723.59ZM4101.6 1467.32C4101.6 1477.57 4104.16 1480.13 4113.13 1480.13H4269.45C4278.42 1480.13 4282.27 1477.57 4282.27 1467.32V763.871C4282.27 754.903 4278.42 751.058 4269.45 751.058H4113.13C4104.16 751.058 4101.6 754.903 4101.6 763.871V1467.32ZM4191.3 470.448C4134.92 470.448 4087.51 510.169 4087.51 569.11C4087.51 629.332 4134.92 665.209 4191.3 665.209C4250.24 665.209 4296.36 629.332 4296.36 569.11C4296.36 510.169 4250.24 470.448 4191.3 470.448ZM4698.46 1326.37C4580.58 1326.37 4511.39 1243.09 4511.39 1111.11C4511.39 981.697 4570.33 894.567 4679.24 894.567C4783.03 894.567 4849.66 965.04 4849.66 1102.14V1326.37H4698.46ZM4916.29 1480.13C4980.35 1480.13 5020.08 1442.97 5020.08 1380.19V470.448C5020.08 460.197 5017.51 457.634 5008.54 457.634H4858.63C4849.66 457.634 4845.82 460.197 4845.82 470.448V826.656C4845.82 826.656 4794.56 742.089 4649.77 742.089C4471.67 742.089 4339.69 894.567 4339.69 1116.24C4339.69 1337.91 4485.76 1480.13 4692.06 1480.13H4916.29ZM5361.95 1354.56C5283.79 1354.56 5250.48 1317.4 5250.48 1263.59C5250.48 1198.24 5294.04 1154.68 5385.02 1154.68C5493.93 1154.68 5564.4 1212.34 5564.4 1284.09V1354.56H5361.95ZM5628.47 1480.13C5691.25 1480.13 5732.26 1442.97 5732.26 1380.19V991.947C5732.26 830.5 5618.22 739.526 5418.33 739.526C5141.56 739.526 5094.16 926.6 5094.16 972.727C5094.16 981.697 5096.72 985.541 5105.69 985.541H5249.2C5258.17 985.541 5263.29 981.697 5264.57 972.727C5276.1 908.662 5323.51 870.222 5409.36 870.222C5518.28 870.222 5563.12 922.756 5563.12 1002.2V1104.7C5563.12 1104.7 5518.28 1036.79 5355.55 1036.79C5187.69 1036.79 5081.34 1127.77 5081.34 1266.15C5081.34 1414.79 5190.25 1480.13 5341.45 1480.13H5628.47ZM5849.9 1213.62C5849.9 1382.75 5937.03 1480.13 6107.45 1480.13H6212.52C6221.49 1480.13 6224.05 1477.57 6224.05 1467.32V1336.62C6224.05 1326.37 6221.49 1323.81 6212.52 1323.81H6124.1C6071.57 1323.81 6028.01 1290.5 6028.01 1225.15V906.099H6212.52C6221.49 906.099 6224.05 903.536 6224.05 893.285V763.871C6224.05 753.621 6221.49 751.058 6212.52 751.058H6028.01V557.578C6028.01 548.608 6025.44 546.046 6015.19 546.046H5862.71C5853.75 546.046 5849.9 548.608 5849.9 557.578V751.058H5751.24C5742.27 751.058 5739.71 753.621 5739.71 763.871V893.285C5739.71 903.536 5742.27 906.099 5751.24 906.099H5849.9V1213.62ZM6544.14 1354.56C6465.98 1354.56 6432.67 1317.4 6432.67 1263.59C6432.67 1198.24 6476.23 1154.68 6567.21 1154.68C6676.12 1154.68 6746.59 1212.34 6746.59 1284.09V1354.56H6544.14ZM6810.66 1480.13C6873.44 1480.13 6914.45 1442.97 6914.45 1380.19V991.947C6914.45 830.5 6800.41 739.526 6600.52 739.526C6323.75 739.526 6276.35 926.6 6276.35 972.727C6276.35 981.697 6278.91 985.541 6287.88 985.541H6431.39C6440.35 985.541 6445.48 981.697 6446.76 972.727C6458.29 908.662 6505.7 870.222 6591.55 870.222C6700.47 870.222 6745.31 922.756 6745.31 1002.2V1104.7C6745.31 1104.7 6700.47 1036.79 6537.74 1036.79C6369.88 1036.79 6263.53 1127.77 6263.53 1266.15C6263.53 1414.79 6372.44 1480.13 6523.64 1480.13H6810.66Z" fill="#FBFBFB"/>
<path fill-rule="evenodd" clip-rule="evenodd" d="M440.653 79.509C724.974 -84.643 1091.91 13.6749 1256.07 298L1256.07 298.013C1420.23 582.338 1321.91 949.274 1037.58 1113.43L1037.58 1113.43L639.622 424.135L-0.00195312 793.441V333.923L440.653 79.509ZM692.935 1312.41L-0.00195312 1712.48V1252.96L493.961 967.769L692.935 1312.41Z" fill="url(#paint0_linear_4_2)"/>
<path fill-rule="evenodd" clip-rule="evenodd" d="M923.915 1712.48L493.959 967.776L639.622 424.154L1383.44 1712.48H923.915Z" fill="#0077FF"/>
</g>
<defs>
<linearGradient id="paint0_linear_4_2" x1="13.618" y1="1574.75" x2="1408.38" y2="769.476" gradientUnits="userSpaceOnUse">
<stop stop-color="#0077FF"/>
<stop offset="1" stop-color="#00ECBB"/>
</linearGradient>
<clipPath id="clip0_4_2">
<rect width="6914.45" height="1736.4" fill="white"/>
</clipPath>
</defs>
</svg>
